<svg width="185" height="29" viewBox="0 0 185 29" fill="none" xmlns="http://www.w3.org/2000/svg">
<g clip-path="url(#clip0_23_38)">
<path d="M32.75 19.5C32.75 19.8315 32.6183 20.1495 32.3839 20.3839C32.1495 20.6183 31.8315 20.75 31.5 20.75H16.5C16.1685 20.75 15.8505 20.6183 15.6161 20.3839C15.3817 20.1495 15.25 19.8315 15.25 19.5V12C15.25 11.6685 15.3817 11.3505 15.6161 11.1161C15.8505 10.8817 16.1685 10.75 16.5 10.75H17.965C18.959 10.7495 19.9122 10.3543 20.615 9.65125L21.6525 8.61625C21.8863 8.38242 22.2031 8.25073 22.5338 8.25H25.4637C25.7952 8.25007 26.1131 8.38181 26.3475 8.61625L27.3825 9.65125C27.7308 9.99964 28.1443 10.276 28.5994 10.4645C29.0546 10.6531 29.5424 10.7501 30.035 10.75H31.5C31.8315 10.75 32.1495 10.8817 32.3839 11.1161C32.6183 11.3505 32.75 11.6685 32.75 12V19.5ZM16.5 9.5C15.837 9.5 15.2011 9.76339 14.7322 10.2322C14.2634 10.7011 14 11.337 14 12V19.5C14 20.163 14.2634 20.7989 14.7322 21.2678C15.2011 21.7366 15.837 22 16.5 22H31.5C32.163 22 32.7989 21.7366 33.2678 21.2678C33.7366 20.7989 34 20.163 34 19.5V12C34 11.337 33.7366 10.7011 33.2678 10.2322C32.7989 9.76339 32.163 9.5 31.5 9.5H30.035C29.372 9.49986 28.7362 9.23637 28.2675 8.7675L27.2325 7.7325C26.7638 7.26363 26.128 7.00014 25.465 7H22.535C21.872 7.00014 21.2362 7.26363 20.7675 7.7325L19.7325 8.7675C19.2638 9.23637 18.628 9.49986 17.965 9.5H16.5Z" fill="#5D5FEF"/>
<path d="M24 18.25C23.1712 18.25 22.3763 17.9208 21.7903 17.3347C21.2042 16.7487 20.875 15.9538 20.875 15.125C20.875 14.2962 21.2042 13.5013 21.7903 12.9153C22.3763 12.3292 23.1712 12 24 12C24.8288 12 25.6237 12.3292 26.2097 12.9153C26.7958 13.5013 27.125 14.2962 27.125 15.125C27.125 15.9538 26.7958 16.7487 26.2097 17.3347C25.6237 17.9208 24.8288 18.25 24 18.25ZM24 19.5C25.1603 19.5 26.2731 19.0391 27.0936 18.2186C27.9141 17.3981 28.375 16.2853 28.375 15.125C28.375 13.9647 27.9141 12.8519 27.0936 12.0314C26.2731 11.2109 25.1603 10.75 24 10.75C22.8397 10.75 21.7269 11.2109 20.9064 12.0314C20.0859 12.8519 19.625 13.9647 19.625 15.125C19.625 16.2853 20.0859 17.3981 20.9064 18.2186C21.7269 19.0391 22.8397 19.5 24 19.5ZM17.75 12.625C17.75 12.7908 17.6842 12.9497 17.5669 13.0669C17.4497 13.1842 17.2908 13.25 17.125 13.25C16.9592 13.25 16.8003 13.1842 16.6831 13.0669C16.5658 12.9497 16.5 12.7908 16.5 12.625C16.5 12.4592 16.5658 12.3003 16.6831 12.1831C16.8003 12.0658 16.9592 12 17.125 12C17.2908 12 17.4497 12.0658 17.5669 12.1831C17.6842 12.3003 17.75 12.4592 17.75 12.625Z" fill="#5D5FEF"/>
</g>
<path d="M48.732 19.168C48.0133 19.168 47.3647 19.028 46.786 18.748C46.2073 18.4587 45.7453 18.0247 45.4 17.446C45.064 16.8673 44.896 16.1347 44.896 15.248V9.2H46.688V15.262C46.688 16.0273 46.87 16.5967 47.234 16.97C47.6073 17.3433 48.1207 17.53 48.774 17.53C49.418 17.53 49.9267 17.3433 50.3 16.97C50.6733 16.5967 50.86 16.0273 50.86 15.262V9.2H52.652V15.248C52.652 16.1347 52.4747 16.8673 52.12 17.446C51.7653 18.0247 51.2893 18.4587 50.692 18.748C50.104 19.028 49.4507 19.168 48.732 19.168ZM54.4393 22.08V12.056H56.0353L56.2313 13.05C56.4553 12.742 56.7493 12.4713 57.1133 12.238C57.4866 12.0047 57.9673 11.888 58.5553 11.888C59.2086 11.888 59.792 12.0467 60.3053 12.364C60.8186 12.6813 61.2246 13.1153 61.5233 13.666C61.822 14.2167 61.9713 14.842 61.9713 15.542C61.9713 16.242 61.822 16.8673 61.5233 17.418C61.2246 17.9593 60.8186 18.3887 60.3053 18.706C59.792 19.014 59.2086 19.168 58.5553 19.168C58.0326 19.168 57.5753 19.07 57.1833 18.874C56.7913 18.678 56.474 18.4027 56.2313 18.048V22.08H54.4393ZM58.1773 17.6C58.7466 17.6 59.218 17.4087 59.5913 17.026C59.9646 16.6433 60.1513 16.1487 60.1513 15.542C60.1513 14.9353 59.9646 14.436 59.5913 14.044C59.218 13.652 58.7466 13.456 58.1773 13.456C57.5986 13.456 57.1226 13.652 56.7493 14.044C56.3853 14.4267 56.2033 14.9213 56.2033 15.528C56.2033 16.1347 56.3853 16.634 56.7493 17.026C57.1226 17.4087 57.5986 17.6 58.1773 17.6ZM63.5721 19V8.92H65.3641V19H63.5721ZM70.5272 19.168C69.8552 19.168 69.2485 19.014 68.7072 18.706C68.1752 18.398 67.7505 17.9733 67.4332 17.432C67.1252 16.8813 66.9712 16.2467 66.9712 15.528C66.9712 14.8093 67.1298 14.1793 67.4472 13.638C67.7645 13.0873 68.1892 12.658 68.7212 12.35C69.2625 12.042 69.8692 11.888 70.5412 11.888C71.2038 11.888 71.8012 12.042 72.3332 12.35C72.8745 12.658 73.2992 13.0873 73.6072 13.638C73.9245 14.1793 74.0832 14.8093 74.0832 15.528C74.0832 16.2467 73.9245 16.8813 73.6072 17.432C73.2992 17.9733 72.8745 18.398 72.3332 18.706C71.7918 19.014 71.1898 19.168 70.5272 19.168ZM70.5272 17.614C70.9938 17.614 71.3998 17.4413 71.7452 17.096C72.0905 16.7413 72.2632 16.2187 72.2632 15.528C72.2632 14.8373 72.0905 14.3193 71.7452 13.974C71.3998 13.6193 70.9985 13.442 70.5412 13.442C70.0652 13.442 69.6545 13.6193 69.3092 13.974C68.9732 14.3193 68.8052 14.8373 68.8052 15.528C68.8052 16.2187 68.9732 16.7413 69.3092 17.096C69.6545 17.4413 70.0605 17.614 70.5272 17.614ZM78.0794 19.168C77.4821 19.168 76.9921 19.0747 76.6094 18.888C76.2267 18.692 75.9421 18.4353 75.7554 18.118C75.5687 17.8007 75.4754 17.4507 75.4754 17.068C75.4754 16.424 75.7274 15.9013 76.2314 15.5C76.7354 15.0987 77.4914 14.898 78.4994 14.898H80.2634V14.73C80.2634 14.254 80.1281 13.904 79.8574 13.68C79.5867 13.456 79.2507 13.344 78.8494 13.344C78.4854 13.344 78.1681 13.4327 77.8974 13.61C77.6267 13.778 77.4587 14.03 77.3934 14.366H75.6434C75.6901 13.862 75.8581 13.4233 76.1474 13.05C76.4461 12.6767 76.8287 12.392 77.2954 12.196C77.7621 11.9907 78.2847 11.888 78.8634 11.888C79.8527 11.888 80.6321 12.1353 81.2014 12.63C81.7707 13.1247 82.0554 13.8247 82.0554 14.73V19H80.5294L80.3614 17.88C80.1561 18.2533 79.8667 18.5613 79.4934 18.804C79.1294 19.0467 78.6581 19.168 78.0794 19.168ZM78.4854 17.768C78.9987 17.768 79.3954 17.6 79.6754 17.264C79.9647 16.928 80.1467 16.5127 80.2214 16.018H78.6954C78.2194 16.018 77.8787 16.1067 77.6734 16.284C77.4681 16.452 77.3654 16.662 77.3654 16.914C77.3654 17.1847 77.4681 17.3947 77.6734 17.544C77.8787 17.6933 78.1494 17.768 78.4854 17.768ZM86.9575 19.168C86.3041 19.168 85.7208 19.0093 85.2075 18.692C84.6941 18.3747 84.2881 17.9407 83.9895 17.39C83.6908 16.8393 83.5415 16.214 83.5415 15.514C83.5415 14.814 83.6908 14.1933 83.9895 13.652C84.2881 13.1013 84.6941 12.672 85.2075 12.364C85.7208 12.0467 86.3041 11.888 86.9575 11.888C87.4801 11.888 87.9375 11.986 88.3295 12.182C88.7215 12.378 89.0388 12.6533 89.2815 13.008V8.92H91.0735V19H89.4775L89.2815 18.006C89.0575 18.314 88.7588 18.5847 88.3855 18.818C88.0215 19.0513 87.5455 19.168 86.9575 19.168ZM87.3355 17.6C87.9141 17.6 88.3855 17.4087 88.7495 17.026C89.1228 16.634 89.3095 16.1347 89.3095 15.528C89.3095 14.9213 89.1228 14.4267 88.7495 14.044C88.3855 13.652 87.9141 13.456 87.3355 13.456C86.7661 13.456 86.2948 13.6473 85.9215 14.03C85.5481 14.4127 85.3615 14.9073 85.3615 15.514C85.3615 16.1207 85.5481 16.62 85.9215 17.012C86.2948 17.404 86.7661 17.6 87.3355 17.6ZM99.4262 19.168C98.7729 19.168 98.1896 19.0093 97.6762 18.692C97.1629 18.3747 96.7569 17.9407 96.4582 17.39C96.1596 16.8393 96.0102 16.214 96.0102 15.514C96.0102 14.814 96.1596 14.1933 96.4582 13.652C96.7569 13.1013 97.1629 12.672 97.6762 12.364C98.1896 12.0467 98.7729 11.888 99.4262 11.888C99.9489 11.888 100.406 11.986 100.798 12.182C101.19 12.378 101.508 12.6533 101.75 13.008V8.92H103.542V19H101.946L101.75 18.006C101.526 18.314 101.228 18.5847 100.854 18.818C100.49 19.0513 100.014 19.168 99.4262 19.168ZM99.8042 17.6C100.383 17.6 100.854 17.4087 101.218 17.026C101.592 16.634 101.778 16.1347 101.778 15.528C101.778 14.9213 101.592 14.4267 101.218 14.044C100.854 13.652 100.383 13.456 99.8042 13.456C99.2349 13.456 98.7636 13.6473 98.3902 14.03C98.0169 14.4127 97.8302 14.9073 97.8302 15.514C97.8302 16.1207 98.0169 16.62 98.3902 17.012C98.7636 17.404 99.2349 17.6 99.8042 17.6ZM108.741 19.168C108.041 19.168 107.42 19.0187 106.879 18.72C106.338 18.4213 105.913 18.0013 105.605 17.46C105.297 16.9187 105.143 16.2933 105.143 15.584C105.143 14.8653 105.292 14.226 105.591 13.666C105.899 13.106 106.319 12.672 106.851 12.364C107.392 12.0467 108.027 11.888 108.755 11.888C109.436 11.888 110.038 12.0373 110.561 12.336C111.084 12.6347 111.49 13.0453 111.779 13.568C112.078 14.0813 112.227 14.6553 112.227 15.29C112.227 15.3927 112.222 15.5 112.213 15.612C112.213 15.724 112.208 15.8407 112.199 15.962H106.921C106.958 16.5033 107.145 16.928 107.481 17.236C107.826 17.544 108.242 17.698 108.727 17.698C109.091 17.698 109.394 17.6187 109.637 17.46C109.889 17.292 110.076 17.0773 110.197 16.816H112.017C111.886 17.2547 111.667 17.656 111.359 18.02C111.06 18.3747 110.687 18.6547 110.239 18.86C109.8 19.0653 109.301 19.168 108.741 19.168ZM108.755 13.344C108.316 13.344 107.929 13.47 107.593 13.722C107.257 13.9647 107.042 14.338 106.949 14.842H110.407C110.379 14.3847 110.211 14.0207 109.903 13.75C109.595 13.4793 109.212 13.344 108.755 13.344ZM118.036 10.978C117.709 10.978 117.439 10.88 117.224 10.684C117.019 10.488 116.916 10.2407 116.916 9.942C116.916 9.64333 117.019 9.40067 117.224 9.214C117.439 9.018 117.709 8.92 118.036 8.92C118.363 8.92 118.629 9.018 118.834 9.214C119.049 9.40067 119.156 9.64333 119.156 9.942C119.156 10.2407 119.049 10.488 118.834 10.684C118.629 10.88 118.363 10.978 118.036 10.978ZM117.14 19V12.056H118.932V19H117.14ZM120.803 19V12.056H122.385L122.539 12.994C122.763 12.658 123.057 12.392 123.421 12.196C123.794 11.9907 124.223 11.888 124.709 11.888C125.782 11.888 126.543 12.3033 126.991 13.134C127.243 12.7513 127.579 12.448 127.999 12.224C128.428 12 128.895 11.888 129.399 11.888C130.304 11.888 130.999 12.1587 131.485 12.7C131.97 13.2413 132.213 14.0347 132.213 15.08V19H130.421V15.248C130.421 14.6507 130.304 14.1933 130.071 13.876C129.847 13.5587 129.497 13.4 129.021 13.4C128.535 13.4 128.143 13.5773 127.845 13.932C127.555 14.2867 127.411 14.7813 127.411 15.416V19H125.619V15.248C125.619 14.6507 125.502 14.1933 125.269 13.876C125.035 13.5587 124.676 13.4 124.191 13.4C123.715 13.4 123.327 13.5773 123.029 13.932C122.739 14.2867 122.595 14.7813 122.595 15.416V19H120.803ZM136.308 19.168C135.711 19.168 135.221 19.0747 134.838 18.888C134.455 18.692 134.171 18.4353 133.984 18.118C133.797 17.8007 133.704 17.4507 133.704 17.068C133.704 16.424 133.956 15.9013 134.46 15.5C134.964 15.0987 135.72 14.898 136.728 14.898H138.492V14.73C138.492 14.254 138.357 13.904 138.086 13.68C137.815 13.456 137.479 13.344 137.078 13.344C136.714 13.344 136.397 13.4327 136.126 13.61C135.855 13.778 135.687 14.03 135.622 14.366H133.872C133.919 13.862 134.087 13.4233 134.376 13.05C134.675 12.6767 135.057 12.392 135.524 12.196C135.991 11.9907 136.513 11.888 137.092 11.888C138.081 11.888 138.861 12.1353 139.43 12.63C139.999 13.1247 140.284 13.8247 140.284 14.73V19H138.758L138.59 17.88C138.385 18.2533 138.095 18.5613 137.722 18.804C137.358 19.0467 136.887 19.168 136.308 19.168ZM136.714 17.768C137.227 17.768 137.624 17.6 137.904 17.264C138.193 16.928 138.375 16.5127 138.45 16.018H136.924C136.448 16.018 136.107 16.1067 135.902 16.284C135.697 16.452 135.594 16.662 135.594 16.914C135.594 17.1847 135.697 17.3947 135.902 17.544C136.107 17.6933 136.378 17.768 136.714 17.768ZM144.934 16.928C144.598 16.928 144.285 16.8907 143.996 16.816L143.478 17.334C143.637 17.418 143.851 17.488 144.122 17.544C144.393 17.6 144.831 17.656 145.438 17.712C146.362 17.796 147.034 18.0153 147.454 18.37C147.874 18.7247 148.084 19.2147 148.084 19.84C148.084 20.2507 147.972 20.638 147.748 21.002C147.524 21.3753 147.179 21.674 146.712 21.898C146.245 22.1313 145.648 22.248 144.92 22.248C143.931 22.248 143.133 22.0613 142.526 21.688C141.919 21.324 141.616 20.7733 141.616 20.036C141.616 19.4107 141.919 18.8693 142.526 18.412C142.339 18.328 142.176 18.2393 142.036 18.146C141.905 18.0527 141.789 17.9547 141.686 17.852V17.53L142.904 16.242C142.363 15.766 142.092 15.1547 142.092 14.408C142.092 13.9413 142.204 13.5167 142.428 13.134C142.661 12.7513 142.988 12.448 143.408 12.224C143.828 12 144.337 11.888 144.934 11.888C145.326 11.888 145.69 11.944 146.026 12.056H148.658V13.148L147.468 13.232C147.655 13.5867 147.748 13.9787 147.748 14.408C147.748 14.8747 147.636 15.2993 147.412 15.682C147.188 16.0647 146.861 16.368 146.432 16.592C146.012 16.816 145.513 16.928 144.934 16.928ZM144.934 15.556C145.298 15.556 145.597 15.458 145.83 15.262C146.073 15.066 146.194 14.786 146.194 14.422C146.194 14.058 146.073 13.778 145.83 13.582C145.597 13.386 145.298 13.288 144.934 13.288C144.551 13.288 144.243 13.386 144.01 13.582C143.777 13.778 143.66 14.058 143.66 14.422C143.66 14.786 143.777 15.066 144.01 15.262C144.243 15.458 144.551 15.556 144.934 15.556ZM143.254 19.854C143.254 20.1993 143.413 20.456 143.73 20.624C144.057 20.8013 144.453 20.89 144.92 20.89C145.368 20.89 145.732 20.7967 146.012 20.61C146.292 20.4327 146.432 20.19 146.432 19.882C146.432 19.63 146.339 19.42 146.152 19.252C145.975 19.084 145.615 18.9813 145.074 18.944C144.691 18.916 144.337 18.874 144.01 18.818C143.739 18.9673 143.543 19.1307 143.422 19.308C143.31 19.4853 143.254 19.6673 143.254 19.854ZM153.065 19.168C152.365 19.168 151.745 19.0187 151.203 18.72C150.662 18.4213 150.237 18.0013 149.929 17.46C149.621 16.9187 149.467 16.2933 149.467 15.584C149.467 14.8653 149.617 14.226 149.915 13.666C150.223 13.106 150.643 12.672 151.175 12.364C151.717 12.0467 152.351 11.888 153.079 11.888C153.761 11.888 154.363 12.0373 154.885 12.336C155.408 12.6347 155.814 13.0453 156.103 13.568C156.402 14.0813 156.551 14.6553 156.551 15.29C156.551 15.3927 156.547 15.5 156.537 15.612C156.537 15.724 156.533 15.8407 156.523 15.962H151.245C151.283 16.5033 151.469 16.928 151.805 17.236C152.151 17.544 152.566 17.698 153.051 17.698C153.415 17.698 153.719 17.6187 153.961 17.46C154.213 17.292 154.4 17.0773 154.521 16.816H156.341C156.211 17.2547 155.991 17.656 155.683 18.02C155.385 18.3747 155.011 18.6547 154.563 18.86C154.125 19.0653 153.625 19.168 153.065 19.168ZM153.079 13.344C152.641 13.344 152.253 13.47 151.917 13.722C151.581 13.9647 151.367 14.338 151.273 14.842H154.731C154.703 14.3847 154.535 14.0207 154.227 13.75C153.919 13.4793 153.537 13.344 153.079 13.344ZM158.058 19V12.056H159.64L159.794 12.994C160.018 12.658 160.312 12.392 160.676 12.196C161.05 11.9907 161.479 11.888 161.964 11.888C163.038 11.888 163.798 12.3033 164.246 13.134C164.498 12.7513 164.834 12.448 165.254 12.224C165.684 12 166.15 11.888 166.654 11.888C167.56 11.888 168.255 12.1587 168.74 12.7C169.226 13.2413 169.468 14.0347 169.468 15.08V19H167.676V15.248C167.676 14.6507 167.56 14.1933 167.326 13.876C167.102 13.5587 166.752 13.4 166.276 13.4C165.791 13.4 165.399 13.5773 165.1 13.932C164.811 14.2867 164.666 14.7813 164.666 15.416V19H162.874V15.248C162.874 14.6507 162.758 14.1933 162.524 13.876C162.291 13.5587 161.932 13.4 161.446 13.4C160.97 13.4 160.583 13.5773 160.284 13.932C159.995 14.2867 159.85 14.7813 159.85 15.416V19H158.058Z" fill="#5D5FEF"/>
<rect x="0.5" y="0.5" width="184" height="28" rx="14" stroke="#7879F1" stroke-dasharray="2 2"/>
<defs>
<clipPath id="clip0_23_38">
<rect width="20" height="20" fill="white" transform="translate(14 4.5)"/>
</clipPath>
</defs>
</svg>
