<svg width="324" height="71" viewBox="0 0 324 71" fill="none" xmlns="http://www.w3.org/2000/svg">
<path d="M298.498 54.75C287.993 54.6116 279.511 46.1296 279.373 35.625C279.511 25.1205 287.993 16.6385 298.498 16.5C309.002 16.6385 317.484 25.1205 317.623 35.625C317.484 46.1296 309.002 54.6116 298.498 54.75ZM298.498 20.75C290.328 20.8576 283.73 27.4548 283.623 35.625C283.73 43.7953 290.328 50.3925 298.498 50.5C306.668 50.3925 313.265 43.7953 313.373 35.625C313.265 27.4548 306.668 20.8576 298.498 20.75ZM309.123 37.75H296.373V25H300.623V33.5H309.123V37.75ZM316.118 22.2545L309.724 15.8795L312.718 12.8684L319.115 19.2434L316.118 22.2524V22.2545ZM280.875 22.2545L277.868 19.2434L284.224 12.8684L287.231 15.8795L280.88 22.2545H280.875Z" fill="#5D5FEF"/>
<path d="M3.84774 54V16.0645H17.1252C20.0877 16.0645 22.5445 16.5703 24.4955 17.5819C26.4465 18.5574 27.8916 19.9123 28.831 21.6465C29.8065 23.3445 30.2942 25.2774 30.2942 27.4452C30.2942 29.5045 29.8245 31.4013 28.8852 33.1355C27.9819 34.8335 26.5548 36.1884 24.6039 37.2C22.6529 38.2116 20.16 38.7174 17.1252 38.7174H9.59226V54H3.84774ZM9.59226 34.0026H16.8542C19.5639 34.0026 21.4968 33.4245 22.6529 32.2684C23.8452 31.0761 24.4413 29.4684 24.4413 27.4452C24.4413 25.3497 23.8452 23.7239 22.6529 22.5677C21.4968 21.3755 19.5639 20.7794 16.8542 20.7794H9.59226V34.0026ZM46.8465 54.6503C44.2814 54.6503 41.9691 54.0723 39.9097 52.9161C37.8865 51.7239 36.2788 50.08 35.0865 47.9845C33.8943 45.8529 33.2981 43.3781 33.2981 40.56C33.2981 37.7419 33.8943 35.2852 35.0865 33.1897C36.3149 31.0581 37.9588 29.4142 40.0181 28.2581C42.0775 27.0658 44.3717 26.4697 46.9007 26.4697C49.4659 26.4697 51.7601 27.0658 53.7833 28.2581C55.8426 29.4142 57.4685 31.0581 58.6607 33.1897C59.8891 35.2852 60.5033 37.7419 60.5033 40.56C60.5033 43.3781 59.8891 45.8529 58.6607 47.9845C57.4685 50.08 55.8426 51.7239 53.7833 52.9161C51.7239 54.0723 49.4117 54.6503 46.8465 54.6503ZM46.8465 49.7187C48.2194 49.7187 49.4839 49.3755 50.6401 48.689C51.8323 48.0026 52.7897 46.991 53.5123 45.6542C54.2349 44.2813 54.5962 42.5832 54.5962 40.56C54.5962 38.5368 54.2349 36.8568 53.5123 35.52C52.8259 34.1471 51.8865 33.1174 50.6943 32.431C49.5381 31.7445 48.2736 31.4013 46.9007 31.4013C45.5278 31.4013 44.2452 31.7445 43.053 32.431C41.8968 33.1174 40.9575 34.1471 40.2349 35.52C39.5123 36.8568 39.151 38.5368 39.151 40.56C39.151 42.5832 39.5123 44.2813 40.2349 45.6542C40.9575 46.991 41.8968 48.0026 43.053 48.689C44.2091 49.3755 45.4736 49.7187 46.8465 49.7187ZM66.7156 54V27.12H71.8098L72.2434 31.8348C73.0744 30.1729 74.2847 28.8723 75.8744 27.9329C77.5002 26.9574 79.3608 26.4697 81.4563 26.4697C84.7079 26.4697 87.255 27.4813 89.0976 29.5045C90.9763 31.5277 91.9156 34.5445 91.9156 38.5548V54H86.2253V39.151C86.2253 33.9484 84.0937 31.3471 79.8305 31.3471C77.6989 31.3471 75.9286 32.1058 74.5195 33.6232C73.1466 35.1406 72.4602 37.3084 72.4602 40.1265V54H66.7156ZM109.954 54C107.316 54 105.221 53.3677 103.667 52.1032C102.114 50.8026 101.337 48.5084 101.337 45.2206V31.9432H96.7304V27.12H101.337L102.041 20.2916H107.081V27.12H114.668V31.9432H107.081V45.2206C107.081 46.7019 107.388 47.7316 108.003 48.3097C108.653 48.8516 109.755 49.1226 111.308 49.1226H114.398V54H109.954ZM132.477 54.6503C129.911 54.6503 127.599 54.0723 125.54 52.9161C123.517 51.7239 121.909 50.08 120.717 47.9845C119.524 45.8529 118.928 43.3781 118.928 40.56C118.928 37.7419 119.524 35.2852 120.717 33.1897C121.945 31.0581 123.589 29.4142 125.648 28.2581C127.708 27.0658 130.002 26.4697 132.531 26.4697C135.096 26.4697 137.39 27.0658 139.413 28.2581C141.473 29.4142 143.098 31.0581 144.291 33.1897C145.519 35.2852 146.133 37.7419 146.133 40.56C146.133 43.3781 145.519 45.8529 144.291 47.9845C143.098 50.08 141.473 51.7239 139.413 52.9161C137.354 54.0723 135.042 54.6503 132.477 54.6503ZM132.477 49.7187C133.849 49.7187 135.114 49.3755 136.27 48.689C137.462 48.0026 138.42 46.991 139.142 45.6542C139.865 44.2813 140.226 42.5832 140.226 40.56C140.226 38.5368 139.865 36.8568 139.142 35.52C138.456 34.1471 137.517 33.1174 136.324 32.431C135.168 31.7445 133.904 31.4013 132.531 31.4013C131.158 31.4013 129.875 31.7445 128.683 32.431C127.527 33.1174 126.588 34.1471 125.865 35.52C125.142 36.8568 124.781 38.5368 124.781 40.56C124.781 42.5832 125.142 44.2813 125.865 45.6542C126.588 46.991 127.527 48.0026 128.683 48.689C129.839 49.3755 131.104 49.7187 132.477 49.7187Z" fill="black"/>
<path d="M152.4 54V16.0645H176.895V21.6465H159.337V32.2684H173.535V37.7419H159.337V54H152.4ZM189.077 54.6503C186.765 54.6503 184.868 54.289 183.387 53.5665C181.906 52.8077 180.804 51.8142 180.081 50.5858C179.359 49.3574 178.997 48.0026 178.997 46.5213C178.997 44.0284 179.973 42.0052 181.924 40.4516C183.875 38.8981 186.801 38.1213 190.703 38.1213H197.532V37.471C197.532 35.6284 197.008 34.2735 195.96 33.4064C194.912 32.5394 193.612 32.1058 192.058 32.1058C190.649 32.1058 189.421 32.449 188.373 33.1355C187.325 33.7858 186.675 34.7613 186.422 36.0619H179.648C179.828 34.111 180.479 32.4129 181.599 30.9677C182.755 29.5226 184.236 28.4206 186.043 27.6619C187.849 26.8671 189.872 26.4697 192.112 26.4697C195.942 26.4697 198.959 27.4271 201.163 29.3419C203.367 31.2568 204.468 33.9665 204.468 37.471V54H198.561L197.911 49.6645C197.116 51.1097 195.996 52.3019 194.551 53.2413C193.142 54.1806 191.317 54.6503 189.077 54.6503ZM190.649 49.231C192.636 49.231 194.172 48.5806 195.256 47.28C196.376 45.9794 197.08 44.3716 197.369 42.4568H191.462C189.619 42.4568 188.301 42.8 187.506 43.4865C186.711 44.1368 186.314 44.9497 186.314 45.9252C186.314 46.9729 186.711 47.7858 187.506 48.3639C188.301 48.9419 189.348 49.231 190.649 49.231ZM190.161 24.9523V20.0748L202.409 13.4632V19.0994L190.161 24.9523ZM224.257 54.6503C221.511 54.6503 219.091 54.0542 216.995 52.8619C214.9 51.6697 213.238 50.0077 212.009 47.8761C210.817 45.7445 210.221 43.3058 210.221 40.56C210.221 37.8142 210.817 35.3755 212.009 33.2439C213.238 31.1123 214.9 29.4503 216.995 28.2581C219.091 27.0658 221.511 26.4697 224.257 26.4697C227.689 26.4697 230.58 27.3729 232.928 29.1794C235.276 30.9497 236.776 33.4065 237.426 36.5497H230.11C229.749 35.249 229.026 34.2374 227.942 33.5148C226.895 32.7561 225.648 32.3768 224.203 32.3768C222.288 32.3768 220.662 33.0994 219.326 34.5445C217.989 35.9897 217.32 37.9948 217.32 40.56C217.32 43.1252 217.989 45.1303 219.326 46.5755C220.662 48.0206 222.288 48.7432 224.203 48.7432C225.648 48.7432 226.895 48.3819 227.942 47.6594C229.026 46.9368 229.749 45.9071 230.11 44.5703H237.426C236.776 47.6052 235.276 50.0439 232.928 51.8865C230.58 53.729 227.689 54.6503 224.257 54.6503ZM247.322 22.9471C246.058 22.9471 245.01 22.5677 244.179 21.809C243.384 21.0503 242.987 20.0929 242.987 18.9368C242.987 17.7806 243.384 16.8413 244.179 16.1187C245.01 15.36 246.058 14.9806 247.322 14.9806C248.587 14.9806 249.617 15.36 250.411 16.1187C251.242 16.8413 251.658 17.7806 251.658 18.9368C251.658 20.0929 251.242 21.0503 250.411 21.809C249.617 22.5677 248.587 22.9471 247.322 22.9471ZM243.854 54V27.12H250.791V54H243.854ZM258.031 54V14.9806H264.968V54H258.031Z" fill="#5D5FEF"/>
</svg>
