<svg width="51" height="51" viewBox="0 0 51 51" fill="none" xmlns="http://www.w3.org/2000/svg">
<path d="M25.4979 46.75C14.9933 46.6116 6.51132 38.1296 6.37286 27.625C6.51132 17.1205 14.9933 8.63849 25.4979 8.50003C36.0024 8.63849 44.4844 17.1205 44.6229 27.625C44.4844 38.1296 36.0024 46.6116 25.4979 46.75ZM25.4979 12.75C17.3276 12.8576 10.7304 19.4548 10.6229 27.625C10.7304 35.7953 17.3276 42.3925 25.4979 42.5C33.6681 42.3925 40.2653 35.7953 40.3729 27.625C40.2653 19.4548 33.6681 12.8576 25.4979 12.75ZM36.1229 29.75H23.3729V17H27.6229V25.5H36.1229V29.75ZM43.1184 14.2545L36.7242 7.87953L39.7184 4.86841L46.1146 11.2434L43.1184 14.2524V14.2545ZM7.87524 14.2545L4.86836 11.2434L11.2242 4.86841L14.2311 7.87953L7.87949 14.2545H7.87524Z" fill="current"/>
</svg>
