<svg width="20" height="20" viewBox="0 0 20 20" fill="none" xmlns="http://www.w3.org/2000/svg">
<path d="M9.708 20C4.76468 19.9349 0.773155 15.9433 0.708 11C0.773155 6.05669 4.76468 2.06517 9.708 2.00002C14.6513 2.06517 18.6428 6.05669 18.708 11C18.6428 15.9433 14.6513 19.9349 9.708 20ZM9.708 4.00002C5.86317 4.05063 2.75862 7.15518 2.708 11C2.75862 14.8448 5.86317 17.9494 9.708 18C13.5528 17.9494 16.6574 14.8448 16.708 11C16.6574 7.15518 13.5528 4.05063 9.708 4.00002ZM10.708 16H8.708V12H4.708V10H8.708V6.00002H10.708V10H14.708V12H10.708V16ZM18 4.70802L14.991 1.70802L16.4 0.291016L19.41 3.29102L18 4.70702V4.70802ZM1.417 4.70802L0 3.29102L2.991 0.291016L4.406 1.70702L1.417 4.70702V4.70802Z" fill="#4D546A"/>
</svg>
