<svg width="60" height="60" viewBox="0 0 60 60" fill="none" xmlns="http://www.w3.org/2000/svg">
<path d="M30 55C16.1929 55 5 43.8071 5 30C5 16.1929 16.1929 5 30 5C43.8071 5 55 16.1929 55 30C54.9848 43.8008 43.8008 54.9848 30 55ZM30 10C18.9543 10 10 18.9543 10 30C10 41.0457 18.9543 50 30 50C41.0457 50 50 41.0457 50 30C49.9876 18.9594 41.0406 10.0124 30 10ZM30 45C26.0501 45.0668 22.3165 43.2001 20 40C18.8752 38.4957 18.0285 36.8024 17.5 35H42.5C42.5 35 42.5 35 42.5 35.02C41.9633 36.813 41.1172 38.4984 40 40C37.6832 43.1997 33.9499 45.0664 30 45ZM21.25 30C19.1789 30 17.5 28.3211 17.5 26.25C17.5 24.1789 19.1789 22.5 21.25 22.5C23.3211 22.5 25 24.1789 25 26.25C25 28.3211 23.3211 30 21.25 30ZM38.7325 29.965C36.6711 29.965 35 28.2939 35 26.2325C35 24.1711 36.6711 22.5 38.7325 22.5C40.7939 22.5 42.465 24.1711 42.465 26.2325C42.4622 28.2928 40.7928 29.9622 38.7325 29.965Z" fill="#14CC8A"/>
</svg>
