<svg width="21" height="18" viewBox="0 0 21 18" fill="none" xmlns="http://www.w3.org/2000/svg">
<path d="M7.41016 0C4.64873 0 2.41016 2.23858 2.41016 5C2.41016 7.76142 4.64873 10 7.41016 10C10.1716 10 12.4102 7.76142 12.4102 5C12.4102 2.23858 10.1716 0 7.41016 0ZM4.41016 5C4.41016 3.34315 5.7533 2 7.41016 2C9.06701 2 10.4102 3.34315 10.4102 5C10.4102 6.65685 9.06701 8 7.41016 8C5.7533 8 4.41016 6.65685 4.41016 5Z" fill="#4D546A"/>
<path d="M15.3186 5.21828C15.0372 5.07484 14.7259 5.00006 14.4102 5.00006V3.00006C15.0418 3.00006 15.6644 3.14956 16.2271 3.43645C16.289 3.46805 16.3501 3.50121 16.4102 3.5359C16.8955 3.81614 17.3173 4.19569 17.6475 4.65055C18.0184 5.16172 18.2631 5.75347 18.3614 6.37737C18.4597 7.00126 18.4089 7.63958 18.2131 8.24005C18.0173 8.84053 17.6821 9.38611 17.2349 9.83213C16.7877 10.2782 16.2412 10.6119 15.6402 10.8062C15.1054 10.979 14.541 11.037 13.9837 10.9772C13.9147 10.9698 13.8459 10.9606 13.7772 10.9496C13.154 10.8497 12.5632 10.6038 12.0533 10.2319L12.0522 10.2311L13.2312 8.61557C13.4863 8.80172 13.7819 8.92477 14.0937 8.97474C14.4055 9.02471 14.7247 9.00014 15.0252 8.90302C15.3257 8.80591 15.5989 8.63903 15.8225 8.41602C16.0461 8.19302 16.2137 7.92024 16.3116 7.62001C16.4095 7.31978 16.4349 7.00063 16.3857 6.68869C16.3366 6.37675 16.2142 6.08089 16.0288 5.82531C15.8433 5.56974 15.5999 5.36172 15.3186 5.21828Z" fill="#4D546A"/>
<path d="M18.4083 18C18.4083 17.475 18.3048 16.9551 18.1039 16.47C17.903 15.9849 17.6085 15.5442 17.2372 15.1729C16.866 14.8017 16.4252 14.5072 15.9402 14.3062C15.4551 14.1053 14.9352 14.0019 14.4102 14.0019V12C15.0922 12 15.7685 12.1163 16.4102 12.3431C16.5097 12.3783 16.6085 12.4162 16.7063 12.4567C17.4342 12.7583 18.0956 13.2002 18.6528 13.7574C19.2099 14.3145 19.6519 14.9759 19.9534 15.7039C19.9939 15.8017 20.0318 15.9004 20.067 16C20.2939 16.6416 20.4102 17.3179 20.4102 18H18.4083Z" fill="#4D546A"/>
<path d="M14.4102 18H12.4102C12.4102 15.2386 10.1716 13 7.41016 13C4.64873 13 2.41016 15.2386 2.41016 18H0.410156C0.410156 14.134 3.54416 11 7.41016 11C11.2761 11 14.4102 14.134 14.4102 18Z" fill="#4D546A"/>
</svg>
