<svg width="21" height="20" viewBox="0 0 21 20" fill="none" xmlns="http://www.w3.org/2000/svg">
<path d="M10.4103 20C8.89831 20.0043 7.40548 19.6622 6.04626 19C5.5488 18.758 5.07218 18.4754 4.62126 18.155L4.48426 18.055C3.24407 17.1396 2.23013 15.9522 1.52026 14.584C0.785992 13.1679 0.405164 11.5952 0.410206 10C0.410206 4.47715 4.88741 0 10.4103 0C15.9331 0 20.4103 4.47715 20.4103 10C20.4153 11.5944 20.0348 13.1664 19.3013 14.582C18.5924 15.9494 17.5798 17.1364 16.3413 18.052C15.874 18.394 15.3782 18.6951 14.8593 18.952L14.7793 18.992C13.4192 19.6577 11.9245 20.0026 10.4103 20ZM10.4103 15C8.91173 14.9971 7.53792 15.834 6.85326 17.167C9.09465 18.2772 11.7259 18.2772 13.9673 17.167V17.162C13.2817 15.8305 11.9079 14.9954 10.4103 15ZM10.4103 13C12.5764 13.0028 14.5737 14.1701 15.6393 16.056L15.6543 16.043L15.6683 16.031L15.6513 16.046L15.6413 16.054C18.1703 13.8691 19.0745 10.3423 17.9089 7.21011C16.7433 4.07788 13.7534 2.00032 10.4113 2.00032C7.06916 2.00032 4.07925 4.07788 2.91361 7.21011C1.74797 10.3423 2.65226 13.8691 5.18126 16.054C6.24752 14.169 8.24462 13.0026 10.4103 13ZM10.4103 12C8.20112 12 6.41026 10.2091 6.41026 8C6.41026 5.79086 8.20112 4 10.4103 4C12.6194 4 14.4103 5.79086 14.4103 8C14.4103 9.06087 13.9888 10.0783 13.2387 10.8284C12.4885 11.5786 11.4711 12 10.4103 12ZM10.4103 6C9.30569 6 8.41026 6.89543 8.41026 8C8.41026 9.10457 9.30569 10 10.4103 10C11.5148 10 12.4103 9.10457 12.4103 8C12.4103 6.89543 11.5148 6 10.4103 6Z" fill="#4D546A"/>
</svg>
