<svg width="60" height="60" viewBox="0 0 60 60" fill="none" xmlns="http://www.w3.org/2000/svg">
<path d="M30 55C16.1929 55 5 43.8071 5 30C5 16.1929 16.1929 5 30 5C43.8071 5 55 16.1929 55 30C54.9848 43.8008 43.8008 54.9848 30 55ZM30 10C18.9543 10 10 18.9543 10 30C10 41.0457 18.9543 50 30 50C41.0457 50 50 41.0457 50 30C49.9876 18.9594 41.0406 10.0124 30 10ZM25 45C24.965 45 24.65 44.9875 22.5 44.9875H20V44.9275C20 44.9 20 44.865 20 44.8225C20 44.74 20 44.6275 20.0175 44.49C20.045 44.1175 20.0875 43.7625 20.1475 43.41C20.3347 42.2719 20.6885 41.1675 21.1975 40.1325C21.8924 38.7034 22.9534 37.4837 24.2725 36.5975L24.3075 36.575L24.3475 36.545L24.385 36.525H24.4H24.4175H24.43H24.4475L24.475 36.5075C26.137 35.4926 28.0528 34.9698 30 35C32.024 34.9462 34.0178 35.499 35.725 36.5875C37.0429 37.475 38.1036 38.6943 38.8 40.1225C39.3109 41.1565 39.664 42.2613 39.8475 43.4C39.9275 43.87 39.9625 44.2475 39.9775 44.48C39.9775 44.59 39.9925 44.7 39.995 44.8125C39.995 44.855 39.995 44.89 39.995 44.9175V44.9675C39.995 44.9675 39.895 44.9675 37.495 44.9675C35.23 44.9675 34.995 44.9675 34.995 44.9675C34.995 44.9675 34.995 44.895 34.995 44.82C34.995 44.6825 34.9625 44.47 34.9175 44.205C34.8127 43.5571 34.6139 42.928 34.3275 42.3375C34.0179 41.6884 33.5428 41.1322 32.95 40.725C32.0591 40.1992 31.0332 39.947 30 40C28.9643 39.9545 27.9382 40.2154 27.05 40.75C26.458 41.1581 25.9831 41.714 25.6725 42.3625C25.3866 42.9532 25.1879 43.5823 25.0825 44.23C25.047 44.4336 25.022 44.6389 25.0075 44.845C25.0075 44.915 25.0075 44.965 25.0075 44.99H25V45ZM21.25 30C19.1789 30 17.5 28.3211 17.5 26.25C17.5 24.1789 19.1789 22.5 21.25 22.5C23.3211 22.5 25 24.1789 25 26.25C25 28.3211 23.3211 30 21.25 30ZM38.7325 29.965C36.6711 29.965 35 28.2939 35 26.2325C35 24.1711 36.6711 22.5 38.7325 22.5C40.7939 22.5 42.465 24.1711 42.465 26.2325C42.4622 28.2928 40.7928 29.9622 38.7325 29.965Z" fill="#F04E4E"/>
</svg>
