<svg width="29" height="30" viewBox="0 0 29 30" fill="none" xmlns="http://www.w3.org/2000/svg">
  <rect x="0.5" y="0.5" width="28" height="29" rx="3.5" stroke="#7879F1"/>
  <path d="M15 22C13.3599 22.0204 11.7367 21.6665 10.254 20.965C9.10469 20.4042 8.07265 19.6298 7.213 18.683C6.30243 17.7041 5.58547 16.5617 5.1 15.316L5 15L5.105 14.684C5.59082 13.4394 6.30624 12.2973 7.214 11.317C8.07334 10.3703 9.10504 9.59587 10.254 9.03501C11.7367 8.3336 13.3599 7.97962 15 8.00001C16.6401 7.97966 18.2633 8.33363 19.746 9.03501C20.8953 9.59574 21.9274 10.3702 22.787 11.317C23.6993 12.2946 24.4165 13.4374 24.9 14.684L25 15L24.895 15.316C23.3262 19.3998 19.3742 22.0694 15 22ZM15 10C11.5959 9.89334 8.47142 11.8751 7.117 15C8.4712 18.1251 11.5958 20.107 15 20C18.4041 20.1064 21.5284 18.1247 22.883 15C21.5304 11.8736 18.4047 9.89109 15 10ZM15 18C13.5573 18.0096 12.3094 16.9974 12.021 15.5838C11.7326 14.1702 12.4843 12.75 13.8154 12.1937C15.1465 11.6373 16.6852 12.1001 17.4885 13.2985C18.2919 14.4969 18.1354 16.0961 17.115 17.116C16.5563 17.6813 15.7948 17.9996 15 18Z" fill="#5D5FEF"/>
</svg>
