<svg width="60" height="60" viewBox="0 0 60 60" fill="none" xmlns="http://www.w3.org/2000/svg">
<path d="M53.165 52.495H6.83246C5.9393 52.495 5.11401 52.0185 4.66744 51.245C4.22087 50.4715 4.22088 49.5185 4.66746 48.745L27.8325 8.745C28.2794 7.97278 29.104 7.49727 29.9962 7.49727C30.8884 7.49727 31.713 7.97278 32.16 8.745L55.325 48.745C55.7713 49.5181 55.7716 50.4706 55.3256 51.2439C54.8796 52.0172 54.0552 52.4941 53.1625 52.495H53.165ZM30 14.995L11.1725 47.495H48.8325L30 14.995ZM32.4875 37.4975H27.4875V24.995H32.4875V37.4975Z" fill="#F0894E"/>
<path d="M27.5 40H32.5V45H27.5V40Z" fill="#F0894E"/>
</svg>
