<svg width="137" height="30" viewBox="0 0 137 30" fill="none" xmlns="http://www.w3.org/2000/svg">
<path d="M126.217 23.1337C121.775 23.0752 118.188 19.4913 118.13 15.0527C118.188 10.6142 121.775 7.03025 126.217 6.97175C130.658 7.03025 134.245 10.6142 134.303 15.0527C134.245 19.4913 130.658 23.0752 126.217 23.1337ZM126.217 8.76752C122.762 8.81297 119.972 11.6005 119.927 15.0527C119.972 18.505 122.762 21.2925 126.217 21.3379C129.671 21.2925 132.461 18.505 132.506 15.0527C132.461 11.6005 129.671 8.81297 126.217 8.76752ZM130.709 15.9506H125.318V10.5633H127.115V14.1548H130.709V15.9506ZM133.667 9.40322L130.964 6.70956L132.23 5.43726L134.934 8.13092L133.667 9.40233V9.40322ZM118.765 9.40322L117.494 8.13092L120.181 5.43726L121.453 6.70956L118.767 9.40322H118.765Z" fill="#5D5FEF"/>
<path d="M1.62698 23V6.95938H7.2412C8.49389 6.95938 9.53271 7.17325 10.3577 7.601C11.1826 8.01347 11.7937 8.58635 12.1909 9.31964C12.6033 10.0376 12.8096 10.855 12.8096 11.7716C12.8096 12.6423 12.611 13.4444 12.2138 14.1777C11.8319 14.8957 11.2284 15.4685 10.4035 15.8963C9.57854 16.324 8.52445 16.5379 7.2412 16.5379H4.05599V23H1.62698ZM4.05599 14.5443H7.12662C8.27238 14.5443 9.08969 14.2999 9.57854 13.811C10.0827 13.3069 10.3347 12.6271 10.3347 11.7716C10.3347 10.8855 10.0827 10.1981 9.57854 9.7092C9.08969 9.20506 8.27238 8.953 7.12662 8.953H4.05599V14.5443ZM19.8086 23.275C18.7239 23.275 17.7462 23.0306 16.8754 22.5417C16.0199 22.0376 15.3401 21.3425 14.836 20.4564C14.3318 19.5551 14.0798 18.5086 14.0798 17.317C14.0798 16.1254 14.3318 15.0866 14.836 14.2006C15.3554 13.2992 16.0505 12.6041 16.9212 12.1153C17.792 11.6112 18.7621 11.3591 19.8315 11.3591C20.9161 11.3591 21.8862 11.6112 22.7417 12.1153C23.6125 12.6041 24.2999 13.2992 24.8041 14.2006C25.3235 15.0866 25.5832 16.1254 25.5832 17.317C25.5832 18.5086 25.3235 19.5551 24.8041 20.4564C24.2999 21.3425 23.6125 22.0376 22.7417 22.5417C21.8709 23.0306 20.8932 23.275 19.8086 23.275ZM19.8086 21.1897C20.3891 21.1897 20.9238 21.0446 21.4126 20.7543C21.9168 20.4641 22.3216 20.0363 22.6271 19.4711C22.9327 18.8905 23.0854 18.1725 23.0854 17.317C23.0854 16.4615 22.9327 15.7512 22.6271 15.1859C22.3369 14.6054 21.9397 14.17 21.4355 13.8798C20.9467 13.5895 20.412 13.4444 19.8315 13.4444C19.251 13.4444 18.7086 13.5895 18.2045 13.8798C17.7156 14.17 17.3184 14.6054 17.0129 15.1859C16.7074 15.7512 16.5546 16.4615 16.5546 17.317C16.5546 18.1725 16.7074 18.8905 17.0129 19.4711C17.3184 20.0363 17.7156 20.4641 18.2045 20.7543C18.6934 21.0446 19.228 21.1897 19.8086 21.1897ZM28.21 23V11.6341H30.364L30.5474 13.6277C30.8987 12.925 31.4105 12.375 32.0827 11.9778C32.7701 11.5653 33.5569 11.3591 34.4429 11.3591C35.8178 11.3591 36.8949 11.7868 37.674 12.6423C38.4684 13.4978 38.8656 14.7735 38.8656 16.4692V23H36.4595V16.7212C36.4595 14.5214 35.5581 13.4215 33.7555 13.4215C32.8542 13.4215 32.1056 13.7423 31.5098 14.3839C30.9293 15.0255 30.639 15.9421 30.639 17.1337V23H28.21ZM46.4927 23C45.3775 23 44.4915 22.7327 43.8346 22.198C43.1777 21.648 42.8492 20.6779 42.8492 19.2877V13.6735H40.9014V11.6341H42.8492L43.1471 8.74676H45.2782V11.6341H48.4864V13.6735H45.2782V19.2877C45.2782 19.9141 45.4081 20.3495 45.6678 20.5939C45.9428 20.8231 46.4087 20.9376 47.0656 20.9376H48.3718V23H46.4927ZM56.0163 23.275C54.9317 23.275 53.954 23.0306 53.0832 22.5417C52.2277 22.0376 51.5479 21.3425 51.0437 20.4564C50.5396 19.5551 50.2875 18.5086 50.2875 17.317C50.2875 16.1254 50.5396 15.0866 51.0437 14.2006C51.5631 13.2992 52.2582 12.6041 53.129 12.1153C53.9998 11.6112 54.9699 11.3591 56.0392 11.3591C57.1239 11.3591 58.094 11.6112 58.9495 12.1153C59.8202 12.6041 60.5077 13.2992 61.0118 14.2006C61.5312 15.0866 61.7909 16.1254 61.7909 17.317C61.7909 18.5086 61.5312 19.5551 61.0118 20.4564C60.5077 21.3425 59.8202 22.0376 58.9495 22.5417C58.0787 23.0306 57.101 23.275 56.0163 23.275ZM56.0163 21.1897C56.5968 21.1897 57.1315 21.0446 57.6204 20.7543C58.1245 20.4641 58.5294 20.0363 58.8349 19.4711C59.1404 18.8905 59.2932 18.1725 59.2932 17.317C59.2932 16.4615 59.1404 15.7512 58.8349 15.1859C58.5446 14.6054 58.1474 14.17 57.6433 13.8798C57.1544 13.5895 56.6198 13.4444 56.0392 13.4444C55.4587 13.4444 54.9164 13.5895 54.4123 13.8798C53.9234 14.17 53.5262 14.6054 53.2207 15.1859C52.9151 15.7512 52.7624 16.4615 52.7624 17.317C52.7624 18.1725 52.9151 18.8905 53.2207 19.4711C53.5262 20.0363 53.9234 20.4641 54.4123 20.7543C54.9011 21.0446 55.4358 21.1897 56.0163 21.1897Z" fill="black"/>
<path d="M64.4407 23V6.95938H74.7984V9.31964H67.3738V13.811H73.3776V16.1254H67.3738V23H64.4407ZM79.9494 23.275C78.9717 23.275 78.1697 23.1222 77.5433 22.8167C76.917 22.4959 76.451 22.0758 76.1455 21.5563C75.84 21.0369 75.6872 20.4641 75.6872 19.8377C75.6872 18.7836 76.0997 17.9281 76.9246 17.2712C77.7496 16.6143 78.987 16.2859 80.6369 16.2859H83.5242V16.0109C83.5242 15.2318 83.3027 14.6589 82.8597 14.2922C82.4166 13.9256 81.8667 13.7423 81.2098 13.7423C80.614 13.7423 80.0946 13.8874 79.6515 14.1777C79.2085 14.4526 78.9335 14.8651 78.8266 15.4151H75.9622C76.0386 14.5901 76.3136 13.8721 76.7871 13.2611C77.276 12.65 77.9023 12.184 78.6662 11.8632C79.43 11.5271 80.2855 11.3591 81.2327 11.3591C82.852 11.3591 84.1276 11.7639 85.0595 12.5736C85.9914 13.3833 86.4573 14.529 86.4573 16.0109V23H83.9596L83.6846 21.1668C83.3485 21.7779 82.8749 22.282 82.2639 22.6792C81.6681 23.0764 80.8966 23.275 79.9494 23.275ZM80.614 20.9835C81.4542 20.9835 82.1035 20.7085 82.5618 20.1585C83.0353 19.6086 83.3332 18.9287 83.4555 18.1191H80.9577C80.1786 18.1191 79.621 18.2642 79.2849 18.5545C78.9488 18.8294 78.7808 19.1732 78.7808 19.5856C78.7808 20.0287 78.9488 20.3724 79.2849 20.6168C79.621 20.8613 80.064 20.9835 80.614 20.9835ZM80.4077 10.7175V8.6551L85.5866 5.85945V8.24263L80.4077 10.7175ZM94.8248 23.275C93.6637 23.275 92.6402 23.0229 91.7541 22.5188C90.8681 22.0146 90.1654 21.3119 89.646 20.4106C89.1418 19.5093 88.8898 18.4781 88.8898 17.317C88.8898 16.156 89.1418 15.1248 89.646 14.2235C90.1654 13.3222 90.8681 12.6194 91.7541 12.1153C92.6402 11.6112 93.6637 11.3591 94.8248 11.3591C96.2761 11.3591 97.4982 11.741 98.4912 12.5048C99.4842 13.2534 100.118 14.2922 100.393 15.6213H97.2996C97.1469 15.0713 96.8413 14.6436 96.383 14.3381C95.94 14.0173 95.4129 13.8568 94.8019 13.8568C93.9922 13.8568 93.3047 14.1624 92.7395 14.7735C92.1743 15.3845 91.8916 16.2324 91.8916 17.317C91.8916 18.4017 92.1743 19.2495 92.7395 19.8606C93.3047 20.4717 93.9922 20.7772 94.8019 20.7772C95.4129 20.7772 95.94 20.6245 96.383 20.3189C96.8413 20.0134 97.1469 19.578 97.2996 19.0128H100.393C100.118 20.296 99.4842 21.3272 98.4912 22.1063C97.4982 22.8854 96.2761 23.275 94.8248 23.275ZM104.578 9.8696C104.043 9.8696 103.6 9.7092 103.249 9.38839C102.913 9.06757 102.744 8.66274 102.744 8.17388C102.744 7.68502 102.913 7.28783 103.249 6.98229C103.6 6.66148 104.043 6.50107 104.578 6.50107C105.112 6.50107 105.548 6.66148 105.884 6.98229C106.235 7.28783 106.411 7.68502 106.411 8.17388C106.411 8.66274 106.235 9.06757 105.884 9.38839C105.548 9.7092 105.112 9.8696 104.578 9.8696ZM103.111 23V11.6341H106.044V23H103.111ZM109.106 23V6.50107H112.039V23H109.106Z" fill="#5D5FEF"/>
</svg>
